<svg width="64" height="64" viewBox="0 0 64 64" fill="none" xmlns="http://www.w3.org/2000/svg">
<circle cx="32" cy="32" r="32" fill="black"/>
<path d="M26.3406 28.4573H28.7883C29.1221 28.4573 29.5672 28.5685 29.7897 28.9023L31.4586 30.5712C31.5699 30.6825 31.6812 30.6825 31.7924 30.6825C31.9037 30.6825 32.0149 30.6825 32.1262 30.5712L33.9064 28.9023C34.1289 28.6798 34.574 28.5685 34.9078 28.5685H37.2443C38.2456 28.5685 39.1357 27.6784 39.1357 26.6771V20.8915C39.1357 19.8901 38.2456 19 37.2443 19H26.3406C25.3392 19 24.4491 19.8901 24.4491 20.8915V26.6771C24.4491 27.6784 25.3392 28.4573 26.3406 28.4573ZM25.5617 20.8915C25.5617 20.4464 25.8955 20.1126 26.3406 20.1126H37.578C38.0231 20.1126 38.3569 20.4464 38.3569 20.8915V26.6771C38.3569 27.1221 38.0231 27.4559 37.578 27.4559H35.2415C34.574 27.4559 34.0177 27.6784 33.4613 28.1235L31.9037 29.3474L30.6798 28.1235C30.1235 27.6784 29.4559 27.3447 28.7883 27.3447H26.3406C25.8955 27.3447 25.5617 27.0109 25.5617 26.5658V20.8915ZM41.9173 30.3487C41.0272 29.5699 39.8033 29.6812 39.0244 30.5712L35.2415 35.0217C35.1303 35.133 35.019 35.2443 34.9078 35.3555C34.9078 35.133 35.019 34.9105 35.019 34.5767C35.019 32.7965 33.5726 31.4613 31.9037 31.4613C30.1235 31.3501 28.7883 32.7965 28.7883 34.5767C28.7883 34.9105 28.8996 35.2443 28.8996 35.4668C28.6771 35.3555 28.5658 35.133 28.3433 34.9105L24.5604 30.46C23.7816 29.5699 22.5577 29.5699 21.6676 30.2375C21.3338 30.6825 21 31.1276 21 31.6839C21 32.2402 21.1113 32.6852 21.445 33.1303L26.1181 38.5821C26.5631 39.0272 26.7856 39.6947 26.7856 40.3623V44.9241H27.8982V40.3623C27.8982 39.4722 27.5645 38.5821 27.0081 37.9145L22.3351 32.4627C22.2239 32.2402 22.1126 32.0177 22.1126 31.7951C22.1126 31.5726 22.2239 31.3501 22.4464 31.1276C22.6689 31.0163 22.8915 30.905 23.114 30.905C23.3365 30.905 23.559 31.0163 23.7816 31.2388L27.5645 35.6893C28.5658 36.8019 30.0122 37.5808 31.4586 37.5808C31.5699 37.5808 31.7924 37.5808 31.9037 37.5808C32.1262 37.5808 32.3487 37.5808 32.5712 37.4695C33.9064 37.247 35.1303 36.5794 36.0204 35.578L39.8033 31.1276C40.1371 30.7938 40.6934 30.6825 41.0272 31.0163C41.2497 31.1276 41.3609 31.3501 41.3609 31.6839C41.3609 32.0177 41.2497 32.1289 41.1384 32.3514L36.5767 37.692C36.0204 38.3596 35.6866 39.2497 35.6866 40.1398V44.8128H36.7992V40.1398C36.7992 39.4722 37.0217 38.9159 37.4668 38.3596L42.0285 33.019C42.3623 32.574 42.5848 32.1289 42.4736 31.5726C42.5848 31.1276 42.3623 30.6825 41.9173 30.3487ZM29.901 34.5767C29.901 33.4641 30.7911 32.574 31.9037 32.574C33.0163 32.574 33.9064 33.4641 33.9064 34.5767C33.9064 35.4668 33.3501 36.2456 32.46 36.4681C32.2375 36.4681 32.0149 36.5794 31.7924 36.5794C31.6812 36.5794 31.4586 36.5794 31.3474 36.5794C30.5685 36.2456 29.901 35.4668 29.901 34.5767ZM31.5699 26.3433L29.2334 24.3406L30.0122 23.4505L31.9037 25.1194L35.3528 21.6703L36.1316 22.4491L32.3487 26.3433C32.2375 26.4546 32.1262 26.5658 31.9037 26.5658C31.7924 26.4546 31.6812 26.4546 31.5699 26.3433Z" fill="white"/>
</svg>
