<svg width="64" height="65" viewBox="0 0 64 65" fill="none" xmlns="http://www.w3.org/2000/svg">
<circle cx="32" cy="32.7192" r="32" fill="black"/>
<path d="M42.1247 45.9241H37.6215V44.707H42.1247C42.9767 44.707 43.707 43.9767 43.707 43.1247V38.8649H44.9241V43.1247C44.9241 44.707 43.707 45.9241 42.1247 45.9241ZM44.9241 22.7993C44.9241 21.2171 43.707 20 42.1247 20H37.6215V21.2171H42.1247C42.9767 21.2171 43.707 21.9473 43.707 22.7993V27.4243H44.9241V22.7993ZM20.2171 22.7993C20.2171 21.9473 20.9473 21.2171 21.7993 21.2171H26.1808V20H21.7993C20.2171 20 19 21.2171 19 22.7993V27.4243H20.2171V22.7993ZM26.1808 44.707H21.7993C20.9473 44.707 20.2171 43.9767 20.2171 43.1247V38.8649H19V43.1247C19 44.707 20.2171 45.9241 21.7993 45.9241H26.0591V44.707H26.1808ZM43.9504 33.6314L44.3155 33.2663L43.9504 32.9012C43.707 32.6578 38.4735 26.3289 31.9012 26.3289C25.3289 26.3289 20.0954 32.536 19.852 32.9012L19.4868 33.2663L19.852 33.6314C20.0954 33.8748 25.3289 40.2037 31.9012 40.2037C38.4735 40.082 43.707 33.8748 43.9504 33.6314ZM31.9012 27.546C37.013 27.546 41.3945 31.9275 42.6116 33.2663C41.3945 34.6051 37.013 38.9866 31.9012 38.9866C26.7894 38.9866 22.4079 34.6051 21.0691 33.2663C22.4079 31.9275 26.7894 27.546 31.9012 27.546ZM36.7695 33.2663C36.7695 30.5887 34.5788 28.3979 31.9012 28.3979C29.2236 28.3979 27.0328 30.5887 27.0328 33.2663C27.0328 35.9439 29.2236 38.1347 31.9012 38.1347C34.5788 38.1347 36.7695 35.9439 36.7695 33.2663ZM35.5524 33.2663C35.5524 35.3354 33.9702 36.9176 31.9012 36.9176C29.8321 36.9176 28.2499 35.3354 28.2499 33.2663C28.2499 31.1972 29.8321 29.615 31.9012 29.615C33.9702 29.615 35.5524 31.1972 35.5524 33.2663Z" fill="white"/>
</svg>
