<svg width="64" height="65" viewBox="0 0 64 65" fill="none" xmlns="http://www.w3.org/2000/svg">
<circle cx="32" cy="32.7192" r="32" fill="black"/>
<path d="M43.3461 37.6383H43.2334V26.1416C43.2334 24.9017 42.2189 24 41.0918 24H23.0577C21.8178 24 20.8034 25.0144 20.8034 26.1416V37.5256H20.4653C19.6763 37.5256 19 38.2019 19 38.9909V39.7799C19 41.0197 20.0144 42.1468 21.367 42.1468H42.5571C43.7969 42.1468 44.9241 41.1324 44.9241 39.7799V38.9909C44.9241 38.3146 44.2478 37.6383 43.3461 37.6383ZM21.9305 26.1416C21.9305 25.578 22.3814 25.1271 23.0577 25.1271H41.0918C41.6554 25.1271 42.1062 25.578 42.1062 26.1416V37.5256H21.9305V26.1416ZM43.7969 39.8926C43.7969 40.5688 43.2334 41.1324 42.5571 41.1324H21.367C20.6907 41.1324 20.1271 40.5688 20.1271 39.8926V39.1036C20.1271 38.8781 20.2398 38.7654 20.4653 38.7654H20.8034H43.2334H43.3461C43.5715 38.7654 43.6842 38.8781 43.6842 39.1036V39.8926H43.7969Z" fill="white"/>
</svg>
