<svg width="64" height="64" viewBox="0 0 64 64" fill="none" xmlns="http://www.w3.org/2000/svg">
<circle cx="32" cy="32" r="32" fill="black"/>
<path d="M37.8 25.1H37.6V23.4C37.6 22.6 37 22 36.2 22H35.2C34.4 22 33.8 22.6 33.8 23.4V25.1H29.6V23.4C29.6 22.6 28.9 22 28.2 22H27.2C26.4 22 25.8 22.6 25.8 23.4V25.1H25.6C24.1 25.1 23 26.3 23 27.7V39.9C23 41.3 24.1 42.5 25.6 42.5H37.8C39.2 42.5 40.4 41.4 40.4 39.9V27.7C40.3 26.3 39.2 25.1 37.8 25.1ZM27.2 23.3H28.2C28.3 23.3 28.4 23.4 28.4 23.5V25.2H27V23.4C27 23.3 27.1 23.3 27.2 23.3ZM35.2 23.3H36.2C36.3 23.3 36.4 23.4 36.4 23.5V25.2H35V23.4C35 23.3 35.1 23.3 35.2 23.3ZM24.3 30.4H39.1V39.9C39.1 40.6 38.5 41.2 37.8 41.2H25.6C24.9 41.2 24.3 40.6 24.3 39.9V30.4ZM25.6 26.4H37.8C38.5 26.4 39.1 27 39.1 27.7V29.1H24.3V27.7C24.3 27 24.8 26.4 25.6 26.4Z" fill="white"/>
</svg>
