<svg width="64" height="64" viewBox="0 0 64 64" fill="none" xmlns="http://www.w3.org/2000/svg">
<circle cx="32" cy="32" r="32" fill="black"/>
<path d="M31.3 31.3L35.2 33.6L34.6 34.7L34.5 34.6L30 32V26.3H31.3V31.3ZM41.7 30.7V32.3C41.7 33.2 41 33.9 40.1 33.9H39C38.7 35.1 38.1 36.3 37.3 37.2L36.5 41C36.3 42 35.4 42.6 34.5 42.6H26.8C25.8 42.6 25 41.9 24.8 41L23.9 37.2C22.7 35.7 22 33.8 22 31.8C22 29.8 22.7 27.9 23.9 26.4L24.8 22.6C25 21.7 25.8 21 26.8 21H34.4C35.4 21 36.2 21.7 36.4 22.6L37.3 26.4C37.9 27.2 38.4 28.1 38.8 29.1H40.1C41 29.1 41.7 29.8 41.7 30.7ZM40.4 32.3V30.7C40.4 30.5 40.2 30.3 40 30.3H39C39.1 30.8 39.1 31.3 39.1 31.8C39.1 32.1 39.1 32.4 39.1 32.7H40C40.3 32.7 40.4 32.5 40.4 32.3ZM35.2 40.7L35.6 38.8C34.2 39.8 32.4 40.4 30.5 40.4C28.6 40.4 26.8 39.8 25.4 38.7L26 40.7C26.1 41.1 26.4 41.4 26.8 41.4H34.4C34.8 41.3 35.1 41.1 35.2 40.7ZM38 31.8C38 27.7 34.7 24.4 30.6 24.4C26.5 24.4 23.2 27.7 23.2 31.8C23.2 35.9 26.5 39.2 30.6 39.2C34.7 39.2 38 35.9 38 31.8ZM26 22.9L25.5 24.8C26.9 23.8 28.7 23.1 30.6 23.1C32.5 23.1 34.2 23.7 35.7 24.8L35.3 22.9C35.2 22.5 34.9 22.2 34.5 22.2H26.8C26.4 22.3 26.1 22.5 26 22.9Z" fill="white"/>
</svg>
