<svg width="64" height="64" viewBox="0 0 64 64" fill="none" xmlns="http://www.w3.org/2000/svg">
<circle cx="32" cy="32" r="32" fill="black"/>
<path d="M42.3 31.4C42.1 31.2 37.6 25 31.8 25C26 25 21.5 31.2 21.3 31.4L21 31.8L21.3 32.2C21.5 32.5 26 38.6 31.8 38.6C37.6 38.6 42.1 32.4 42.3 32.2L42.6 31.8L42.3 31.4ZM41 31.8C39.9 33.2 36.1 37.4 31.8 37.4C27.4 37.4 23.7 33.2 22.6 31.8C23.7 30.4 27.5 26.2 31.8 26.2C36.1 26.3 39.9 30.4 41 31.8ZM27.2 31.8C27.2 34.3 29.3 36.4 31.8 36.4C34.3 36.4 36.4 34.3 36.4 31.8C36.4 29.3 34.3 27.2 31.8 27.2C29.3 27.2 27.2 29.3 27.2 31.8ZM31.8 35.1C30 35.1 28.5 33.6 28.5 31.8C28.5 30 30 28.5 31.8 28.5C33.6 28.5 35.1 30 35.1 31.8C35.1 33.7 33.6 35.1 31.8 35.1Z" fill="white"/>
</svg>
