<svg width="64" height="64" viewBox="0 0 64 64" fill="none" xmlns="http://www.w3.org/2000/svg">
<circle cx="32" cy="32" r="32" fill="black"/>
<path d="M41.1 40.3L38 37.1C39.4 35.5 40.1 33.6 40.1 31.5C40.1 26.8 36.3 23 31.6 23C26.9 23 23 26.8 23 31.5C23 36.2 26.8 40 31.5 40C33.5 40 35.5 39.3 37 37.9L40.1 41.1H40.2H40.3L41 40.4C41.2 40.4 41.2 40.4 41.1 40.3ZM31.5 38.8C27.5 38.8 24.2 35.5 24.2 31.5C24.2 27.5 27.5 24.2 31.5 24.2C35.5 24.2 38.8 27.5 38.8 31.5C38.8 35.5 35.6 38.8 31.5 38.8Z" fill="white"/>
</svg>
