<svg width="64" height="64" viewBox="0 0 64 64" fill="none" xmlns="http://www.w3.org/2000/svg">
<circle cx="32" cy="32" r="32" fill="black"/>
<path d="M41.3 30.7243V27.9243C41.3 26.3243 40 24.9243 38.3 24.9243H38.1L37.2 22.4243C36.8 21.3243 35.6 20.7243 34.5 21.1243L23.5 24.9243H23C21.4 24.9243 20 26.2243 20 27.9243V40.3243C20 41.9243 21.3 43.3243 23 43.3243H38.4C40 43.3243 41.4 42.0243 41.4 40.3243V37.5243C42.5 37.5243 43.4 36.5243 43.4 35.4243V32.7243C43.4 31.7243 42.5 30.7243 41.3 30.7243ZM35.7 22.3243C35.9 22.4243 36.1 22.6243 36.1 22.8243L36.8 24.9243H27.4L35 22.3243C35.2 22.2243 35.4 22.2243 35.7 22.3243ZM38.3 42.1243H23C22 42.1243 21.3 41.3243 21.3 40.4243V27.9243C21.3 27.0243 22 26.2243 23 26.2243H38.4C39.4 26.2243 40.1 27.0243 40.1 27.9243V30.7243H36.2C35 30.7243 34.1 31.7243 34.1 32.8243V35.5243C34.1 36.7243 35.1 37.6243 36.2 37.6243H40.1V40.4243C40.1 41.3243 39.3 42.1243 38.3 42.1243ZM35.3 32.8243C35.3 32.3243 35.7 31.9243 36.2 31.9243H41.3C41.8 31.9243 42.2 32.3243 42.2 32.8243V35.5243C42.2 36.0243 41.8 36.4243 41.3 36.4243H36.2C35.7 36.4243 35.3 36.0243 35.3 35.5243V32.8243Z" fill="white"/>
</svg>
