<svg width="40" height="40" viewBox="0 0 40 40" fill="none" xmlns="http://www.w3.org/2000/svg">
<path d="M27.6522 0H26.7826H12.8696H12.1739C9.91304 0 8 1.91304 8 4.17391V36C8 38.087 9.91304 40 12.1739 40H27.8261C30.087 40 32 38.087 32 35.8261V4.17391C31.8261 1.91304 29.913 0 27.6522 0ZM25.3913 1.73913L25.2174 1.91304C24.8696 2.6087 24.1739 2.95652 23.4783 2.95652H16.3478C15.6522 2.95652 14.9565 2.6087 14.6087 1.91304V1.73913H25.3913ZM30.087 35.8261C30.087 37.0435 29.0435 38.2609 27.6522 38.2609H12C10.7826 38.2609 9.73913 37.2174 9.73913 35.8261V4.17391C9.73913 2.78261 10.7826 1.73913 12.1739 1.73913H12.6957L13.2174 2.78261C13.913 4 15.1304 4.69565 16.5217 4.69565H23.6522C25.0435 4.69565 26.2609 4 26.9565 2.78261L27.3043 1.73913H27.6522C28.8696 1.73913 30.087 2.78261 30.087 4.17391V35.8261ZM19.8261 30.4348C18.087 30.4348 16.5217 32 16.5217 33.7391C16.5217 35.4783 18.087 37.0435 19.8261 37.0435C21.5652 37.0435 23.1304 35.4783 23.1304 33.7391C23.1304 32 21.7391 30.4348 19.8261 30.4348ZM19.8261 35.3043C18.9565 35.3043 18.2609 34.6087 18.2609 33.7391C18.2609 32.8696 18.9565 32.1739 19.8261 32.1739C20.6957 32.1739 21.3913 32.8696 21.3913 33.7391C21.3913 34.6087 20.6957 35.3043 19.8261 35.3043Z" fill="black"/>
</svg>
