<svg width="40" height="40" viewBox="0 0 40 40" fill="none" xmlns="http://www.w3.org/2000/svg">
<path d="M39.0136 17.8324C38.1389 16.3788 36.5643 15.652 34.9898 15.652H25.1926C24.8427 15.652 24.8427 15.4703 24.6678 15.4703C24.6678 15.4703 24.4928 15.1069 24.6678 14.9252L27.292 9.29243C27.9918 7.65711 27.9918 5.8401 27.467 4.02308C26.7672 2.38777 25.5425 0.934152 23.968 0.207346C22.5684 -0.337759 20.9939 0.207346 20.469 1.66096L16.4452 10.3826C14.8707 13.835 13.1212 14.5618 10.8468 14.7435C10.322 13.6533 9.27229 12.9265 8.04765 12.9265H2.97413C1.39959 13.1082 0 14.3801 0 16.1971V36.9111C0 38.7281 1.39959 40 2.97413 40H8.04765C9.44724 40 10.6719 38.9098 11.0218 37.4562C13.646 38.7281 16.7951 39.4549 19.0694 39.4549L28.1668 39.6366C31.6658 39.6366 34.8148 37.2745 36.0395 33.8221L39.7134 22.5566C40.2383 20.9213 40.0633 19.1043 39.0136 17.8324ZM28.3417 37.4562L19.2444 37.2745C16.97 37.2745 13.4711 36.1843 11.1967 34.9124V17.1056C14.6957 16.7422 16.7951 15.1069 18.3696 11.2911L22.2185 2.56947C22.3935 2.38777 22.5684 2.20606 22.9183 2.38777C23.968 2.93287 24.8427 3.84138 25.1926 4.93159C25.5425 6.0218 25.5425 7.29371 25.1926 8.38392L22.5684 14.0167C22.2185 14.9252 22.2185 15.8337 22.7434 16.7422C23.2682 17.469 24.143 18.0141 25.0177 18.0141H34.9898C35.8645 18.0141 36.7393 18.5592 37.2641 19.286C37.789 20.0128 37.9639 21.103 37.614 22.0115L33.9401 33.277C33.2403 35.6392 30.966 37.4562 28.3417 37.4562ZM2.27434 16.1971C2.27434 15.652 2.62423 15.2886 3.14908 15.2886H8.2226C8.74745 15.2886 9.09734 15.652 9.09734 16.1971V36.9111C9.09734 37.4562 8.74745 37.8196 8.2226 37.8196H2.97413C2.44929 37.8196 2.09939 37.4562 2.09939 36.9111V16.1971H2.27434Z" fill="black"/>
</svg>
