<svg width="40" height="40" viewBox="0 0 40 40" fill="none" xmlns="http://www.w3.org/2000/svg">
<g clip-path="url(#clip0)">
<path d="M3.96552 40H36.2069C38.2759 40 40.1724 38.2833 40.1724 36.0515V3.9485C40 1.71674 38.2759 0 36.2069 0H25.1724C23.1034 0 21.2069 1.03004 20.1724 2.74678C18.7931 1.03004 17.069 0 15 0H3.96552C1.72414 0 0 1.71674 0 3.9485V36.2232C0 38.2833 1.72414 40 3.96552 40ZM37.931 36.2232C37.931 37.2532 37.069 37.9399 36.2069 37.9399H21.3793C21.7241 36.2232 23.4483 34.8498 25.1724 34.8498H36.2069C36.7241 34.8498 37.4138 34.6781 37.931 34.5064V36.2232ZM21.2069 6.00858C21.2069 3.77682 22.931 2.06009 25.1724 2.06009H36.2069C37.2414 2.06009 37.931 2.74678 37.931 3.77682V30.9013C37.931 31.9313 37.069 32.618 36.2069 32.618H25.1724C23.7931 32.618 22.4138 33.133 21.2069 33.9914V6.00858ZM2.24138 3.9485C2.24138 2.91845 2.93103 2.23176 3.96552 2.23176H15C17.2414 2.23176 18.9655 3.9485 18.9655 6.18026V34.3348C17.931 33.4764 16.5517 32.9614 15 32.9614H3.96552C2.93103 32.9614 2.24138 32.103 2.24138 31.2446V3.9485ZM2.24138 34.5064C2.75862 34.8498 3.44828 34.8498 3.96552 34.8498H15C16.8965 34.8498 18.4483 36.0515 18.7931 37.9399H3.96552C2.93103 37.9399 2.24138 37.0815 2.24138 36.2232V34.5064Z" fill="black"/>
</g>
<defs>
<clipPath id="clip0">
<rect width="40" height="40" fill="white"/>
</clipPath>
</defs>
</svg>
