<svg width="40" height="40" viewBox="0 0 40 40" fill="none" xmlns="http://www.w3.org/2000/svg">
<path d="M32.7701 6.04878H32.3678V2.73171C32.3678 1.17073 31.1609 0 29.5517 0H27.5402C25.931 0 24.7241 1.17073 24.7241 2.73171V6.04878H16.2759V2.73171C16.2759 1.17073 14.8678 0 13.4598 0H11.4483C9.83908 0 8.63218 1.17073 8.63218 2.73171V6.04878H8.22989C5.21264 6.04878 3 8.39024 3 11.122V34.9268C3 37.6585 5.21264 40 8.22989 40H32.7701C35.5862 40 38 37.8537 38 34.9268V11.122C37.7989 8.39024 35.5862 6.04878 32.7701 6.04878ZM11.4483 2.53659H13.4598C13.6609 2.53659 13.8621 2.73171 13.8621 2.92683V6.2439H11.046V2.73171C11.046 2.53659 11.2471 2.53659 11.4483 2.53659ZM27.5402 2.53659H29.5517C29.7529 2.53659 29.954 2.73171 29.954 2.92683V6.2439H27.1379V2.73171C27.1379 2.53659 27.3391 2.53659 27.5402 2.53659ZM5.61494 16.3902H35.3851V34.9268C35.3851 36.2927 34.1782 37.4634 32.7701 37.4634H8.22989C6.82184 37.4634 5.61494 36.2927 5.61494 34.9268V16.3902ZM8.22989 8.58537H32.7701C34.1782 8.58537 35.3851 9.7561 35.3851 11.122V13.8537H5.61494V11.122C5.61494 9.7561 6.62069 8.58537 8.22989 8.58537Z" fill="black"/>
</svg>
